<svg height="20.272" viewBox="0 0 64 64" width="20.05" xmlns="http://www.w3.org/2000/svg"><path d="m5 50v9a1 1 0 0 0 1 1h4v1a1 1 0 0 0 1 1h4a1 1 0 0 0 1-1v-.9l18.9 1.9c.034 0 .067.005.1.005a1 1 0 0 0 .447-.1l17.824-8.913a3.459 3.459 0 0 0 1.655-4.353 3.269 3.269 0 0 0 -1.869-1.939 4.245 4.245 0 0 0 -3.451.378l-9.911 3.6a3 3 0 0 0 -2.695-1.678h-21v-1a1 1 0 0 0 -1-1h-4a1 1 0 0 0 -1 1v1h-4a1 1 0 0 0 -1 1zm11 1h21a1 1 0 0 1 0 2h-10v2h10a3 3 0 0 0 2.9-2.263l10.445-3.8a.969.969 0 0 0 .105-.044 2.527 2.527 0 0 1 1.9-.325 1.317 1.317 0 0 1 .723.8 1.447 1.447 0 0 1 -.693 1.822l-17.568 8.787-18.812-1.877zm-4-2h2v11h-2zm-5 2h3v7h-3z"/><path d="m16.586 36 4.414 4.414 1-1v7.586h16v-7.586l1 1 4.414-4.414-13.414-13.414zm15.414 9h-4v-4a2 2 0 0 1 4 0zm4 0h-2v-4a4 4 0 0 0 -8 0v4h-2v-7.586l6-6 6 6zm3-7.414-9-9-9 9-1.586-1.586 10.586-10.586 10.586 10.586z"/><path d="m33 19a11 11 0 1 0 11-11 11.013 11.013 0 0 0 -11 11zm20 0a9 9 0 1 1 -9-9 9.01 9.01 0 0 1 9 9z"/><path d="m44 4v2a13.015 13.015 0 0 1 13 13h2a15.017 15.017 0 0 0 -15-15z"/><path d="m43 12v2h-2a1 1 0 0 0 -1 1v4a1 1 0 0 0 1 1h5v2h-6v2h3v2h2v-2h2a1 1 0 0 0 1-1v-4a1 1 0 0 0 -1-1h-5v-2h6v-2h-3v-2z"/><path d="m21 2a11 11 0 1 0 11 11 11.013 11.013 0 0 0 -11-11zm0 20a9 9 0 1 1 9-9 9.01 9.01 0 0 1 -9 9z"/><path d="m21 28v-2a13.015 13.015 0 0 1 -13-13h-2a15.017 15.017 0 0 0 15 15z"/><path d="m22 6h-2v2h-2a1 1 0 0 0 -1 1v4a1 1 0 0 0 1 1h5v2h-6v2h3v2h2v-2h2a1 1 0 0 0 1-1v-4a1 1 0 0 0 -1-1h-5v-2h6v-2h-3z"/><path d="m6 9h2v2h-2z"/><path d="m57 21h2v2h-2z"/></svg>